<svg width="229" height="218" viewBox="0 0 229 218" fill="none" xmlns="http://www.w3.org/2000/svg">
<g clip-path="url(#clip0)">
<path d="M105.59 59.3198C105.59 59.3198 71.48 39.4698 42.33 74.0898C13.18 108.71 19.56 202.73 93.96 214.35C112.96 216.56 121.1 216.25 124.21 217.17C125.26 215.68 136.34 209.17 146.69 203.85C156.26 198.85 200.32 179.03 201.69 106.85C203.06 34.6698 150.05 37.5198 135.79 42.2398C119.87 47.5498 105.59 59.3198 105.59 59.3198Z" fill="#F8A169"/>
<path d="M105.59 59.3198C105.59 59.3198 76.0898 123.32 124.21 217.17C125.26 215.68 136.34 209.17 146.69 203.85C156.26 198.85 200.32 179.03 201.69 106.85C203.06 34.6698 150.05 37.5198 135.79 42.2398C119.87 47.5498 105.59 59.3198 105.59 59.3198Z" fill="#F8A169"/>
<path d="M111.77 62.01C111.77 62.01 83.5501 111.85 122.18 192.47C123.94 196.14 135.18 202.03 145.28 197.06C154.58 192.47 197.38 174.12 198.74 107.43C200.1 40.7399 148.55 43.34 134.74 47.7C119.21 52.57 111.77 62.01 111.77 62.01Z" fill="#F8A169"/>
<path d="M111.77 62.01C111.77 62.01 83.5501 111.85 122.18 192.47C123.94 196.14 135.18 202.03 145.28 197.06C154.58 192.47 197.38 174.12 198.74 107.43C200.1 40.7399 148.55 43.34 134.74 47.7C119.21 52.57 111.77 62.01 111.77 62.01Z" fill="#F8A169"/>
<path d="M134.73 47.82C127.973 49.9078 121.694 53.3058 116.25 57.82C114.79 59.0005 113.468 60.3424 112.31 61.82C112.82 61.66 96.1301 94.38 110.73 152.1C114.092 165.481 118.646 178.533 124.34 191.1C125.87 194.99 136.45 200.8 145.99 196.4C152.353 193.639 158.329 190.062 163.77 185.76L164.14 185.48C179.08 173.69 197.57 151.04 198.62 107.94C198.72 103.94 198.62 100.24 198.36 96.71C194.22 41.17 147.76 43.72 134.73 47.82Z" fill="#F8A16A"/>
<path d="M134.75 47.9499C128.075 50.0104 121.866 53.3527 116.47 57.7899C115.102 58.8739 113.885 60.1349 112.85 61.5399C113.85 61.2199 100.02 92.4899 113.79 150.54C116.931 163.933 121.182 177.042 126.5 189.73C127.81 193.84 137.67 199.51 146.69 195.73C152.574 193.347 158.076 190.112 163.02 186.13L163.38 185.85C178.09 174.4 197.27 151.99 198.51 108.45C198.62 104.45 198.51 100.75 198.29 97.1999C194.37 41.2999 147.79 43.8399 134.75 47.9499Z" fill="#F9A26B"/>
<path d="M134.76 48.08C128.173 50.1194 122.041 53.4095 116.7 57.77C114.32 59.84 113.23 61.36 113.39 61.31C114.92 60.83 103.8 90.67 116.85 148.94C119.77 162.344 123.718 175.503 128.66 188.3C129.74 192.64 138.88 198.1 147.4 194.99C152.797 193.006 157.821 190.126 162.26 186.47L162.63 186.2C177.1 175.09 196.96 152.93 198.4 108.95C198.52 104.95 198.45 101.24 198.22 97.66C194.51 41.47 147.87 43.97 134.76 48.08Z" fill="#F9A36B"/>
<path d="M134.78 48.2101C128.277 50.2245 122.218 53.4625 116.93 57.7501C114.71 59.7501 113.72 61.1401 113.93 61.0701C115.93 60.4301 107.57 88.8601 119.93 147.39C122.656 160.804 126.312 174.013 130.87 186.92C131.73 191.48 140.12 196.62 148.16 194.3C153.075 192.688 157.627 190.13 161.56 186.77L161.87 186.47C176.07 175.67 196.65 153.79 198.28 109.37C198.41 105.42 198.35 101.66 198.13 98.0601C194.66 41.5501 147.87 44.0901 134.78 48.2101Z" fill="#F9A46C"/>
<path d="M134.8 48.3399C128.378 50.3315 122.39 53.5172 117.15 57.7299C115.09 59.5799 114.21 60.9199 114.47 60.8399C117.02 60.0399 111.33 87.0399 122.96 145.84C125.465 159.272 128.804 172.534 132.96 185.55C133.58 190.33 141.7 196.55 148.79 193.63C150.2 193.69 154.97 191.89 160.72 187.12L161.1 186.85C175.1 176.41 196.43 154.77 198.1 109.85C198.25 105.91 198.21 102.14 198 98.5099C194.8 41.6799 147.87 44.2199 134.8 48.3399Z" fill="#F9A46C"/>
<path d="M134.87 48.4701C128.534 50.4408 122.62 53.5742 117.43 57.7101C115.53 59.4501 114.75 60.7101 115.06 60.6101C118.13 59.6101 115.12 85.2401 126.06 144.28C128.38 157.725 131.428 171.035 135.19 184.15C135.59 189.15 143.07 195.4 149.57 192.93C150.57 193.33 154.82 191.85 160.03 187.46L160.42 187.19C174.12 177.05 196.21 155.69 198.1 110.38C198.27 106.44 198.23 102.66 198.04 99.0001C194.95 41.8101 147.87 44.3501 134.87 48.4701Z" fill="#F9A56D"/>
<path d="M134.87 48.5999C128.616 50.5429 122.775 53.6246 117.64 57.6899C115.89 59.3199 115.21 60.4899 115.58 60.3699C119.15 59.2499 118.84 83.4299 129.1 142.72C131.44 156.24 133.81 169.57 137.34 182.77C137.51 187.99 144.34 194.3 150.27 192.24C150.91 192.98 154.58 191.81 159.27 187.8L159.65 187.54C173.13 177.76 195.91 156.63 197.98 110.87C198.16 106.94 198.14 103.15 197.98 99.4699C195.09 41.9399 147.93 44.4699 134.87 48.5999Z" fill="#F9A66E"/>
<path d="M134.87 48.7299C128.708 50.6555 122.948 53.6847 117.87 57.6699C116.29 59.1899 115.71 60.2699 116.13 60.1399C120.22 58.8499 122.58 81.6299 132.13 141.14C134.35 154.89 136.39 168.26 139.47 181.37C139.42 186.81 145.63 193.18 150.94 191.54C151.21 192.61 154.33 191.76 158.48 188.12C158.61 188.04 158.75 187.96 158.87 187.87C172.07 178.38 195.58 157.55 197.87 111.34C198.06 107.42 198.05 103.62 197.87 99.9099C195.24 42.0699 147.96 44.5999 134.87 48.7299Z" fill="#F9A66E"/>
<path d="M134.87 48.8599C128.778 50.753 123.079 53.7345 118.05 57.6599C116.62 59.0599 116.15 60.0499 116.62 59.8999C121.22 58.4599 126.25 79.8199 135.18 139.61C137.27 153.61 138.99 167 141.62 180.01C141.34 185.67 146.92 192.09 151.62 190.87C151.51 192.29 154.08 191.74 157.7 188.49C157.83 188.4 157.96 188.33 158.09 188.23C171.03 179.06 195.27 158.51 197.69 111.85C197.9 107.94 197.9 104.13 197.75 100.39C195.38 42.1999 147.99 44.7299 134.87 48.8599Z" fill="#F9A76F"/>
<path d="M134.87 48.9801C128.864 50.8589 123.239 53.7912 118.26 57.6401C116.98 58.9301 116.62 59.8401 117.14 59.6401C122.25 58.0301 129.94 77.9901 138.22 138.02C140.17 152.21 141.58 165.68 143.77 178.59C143.26 184.48 148.2 190.96 152.33 190.15C151.84 191.91 153.85 191.68 156.94 188.8L157.34 188.55C170.04 179.73 194.97 159.41 197.58 112.32C197.8 108.41 197.82 104.59 197.68 100.83C195.53 42.3201 148.02 44.8501 134.87 48.9801Z" fill="#F9A870"/>
<path d="M134.92 49.1101C128.995 50.9586 123.443 53.8396 118.52 57.6201C117.4 58.8001 117.13 59.6201 117.71 59.4401C123.33 57.6701 133.71 76.2301 141.3 136.44C143.13 150.86 144.22 164.38 145.96 177.19C145.22 183.29 149.53 189.84 153.07 189.45C152.2 191.54 153.66 191.63 156.22 189.13L156.62 188.88C169.05 180.37 194.7 160.33 197.5 112.79C197.73 108.89 197.76 105.06 197.64 101.27C195.67 42.47 148.05 44.9801 134.92 49.1101Z" fill="#F9A970"/>
<path d="M134.94 49.2402C129.098 51.0703 123.617 53.8988 118.74 57.6002C117.74 58.6702 117.62 59.4002 118.25 59.2002C124.38 57.2702 137.37 74.4302 144.36 134.94C146.05 149.58 146.83 163.15 148.12 175.85C147.12 182.18 150.83 188.79 153.78 188.85C152.52 191.28 153.44 191.68 155.46 189.56L155.87 189.32C168.05 181.13 194.4 161.32 197.39 113.37C197.63 109.48 197.68 105.64 197.57 101.83C195.87 42.5802 148.08 45.1102 134.94 49.2402Z" fill="#F9A971"/>
<path d="M134.96 49.3699C129.198 51.1752 123.787 53.9518 118.96 57.5799C118.16 58.5799 118.1 59.1799 118.78 58.9699C125.42 56.8799 141.05 72.6299 147.41 133.38C148.97 148.25 149.41 161.86 150.27 174.47C149.08 181.02 152.13 187.68 154.48 188.12C152.84 190.89 153.2 191.61 154.69 189.87L155.11 189.63C167.02 181.74 194.11 162.25 197.26 113.83C197.52 109.94 197.58 106.09 197.48 102.25C195.96 42.7099 148.11 45.2299 134.96 49.3699Z" fill="#FAAA72"/>
<path d="M134.98 49.47C129.303 51.2471 123.967 53.9723 119.2 57.53C118.55 58.38 118.6 58.94 119.33 58.7C126.48 56.46 144.74 70.81 150.48 131.8C151.89 146.89 152.05 160.55 152.48 173.06C151.07 179.83 153.48 186.55 155.23 187.41C153.23 190.52 153.03 191.54 153.99 190.18L154.4 189.95C166.05 182.37 193.84 163.16 197.2 114.29C197.47 110.41 197.54 106.55 197.46 102.68C196.11 42.84 148.13 45.36 134.98 49.47Z" fill="#FAAB72"/>
<path d="M135 49.6303C129.403 51.3814 124.137 54.0549 119.42 57.5403C118.94 58.2703 119.08 58.7503 119.87 58.5403C127.53 56.1303 148.42 69.0803 153.53 130.31C154.81 145.63 154.66 159.31 154.61 171.74C152.96 178.74 154.74 185.52 155.9 186.74C153.51 190.19 152.76 191.53 153.19 190.55C153.33 190.47 153.48 190.4 153.61 190.31C164.99 183.04 193.5 164.12 197.05 114.8C197.33 110.93 197.42 107.06 197.35 103.17C196.25 42.9703 148.16 45.4703 135 49.6303Z" fill="#FAAB73"/>
<path d="M135.02 49.7599C129.505 51.4848 124.312 54.1066 119.65 57.5199C119.32 58.1399 119.57 58.5199 120.42 58.2699C128.58 55.6999 152.09 67.2699 156.59 128.71C157.466 142.564 157.526 156.458 156.77 170.32C155.438 175.475 155.383 180.878 156.61 186.06C153.84 189.85 152.54 191.51 152.44 190.9C152.58 190.82 152.72 190.76 152.86 190.67C163.96 183.67 193.19 165.07 196.94 115.31C197.23 111.44 197.33 107.56 197.28 103.64C196.4 43.0999 148.19 45.6099 135.02 49.7599Z" fill="#FAAC74"/>
<path d="M135.04 49.8902C129.606 51.5781 124.483 54.1381 119.87 57.4702C119.69 57.9802 120.05 58.2902 120.95 58.0002C129.62 55.2702 155.74 65.4202 159.64 127.13C160.405 141.056 160.164 155.019 158.92 168.91C156.82 176.34 157.33 183.24 157.31 185.35C154.15 189.47 152.31 191.44 151.67 191.22C151.81 191.14 151.96 191.08 152.1 190.99C162.94 184.32 192.87 165.99 196.82 115.77C197.12 111.91 197.247 108.014 197.2 104.08C196.54 43.2302 148.22 45.7402 135.04 49.8902Z" fill="#FAAD74"/>
<path d="M135.06 50.0198C129.712 51.6924 124.665 54.2073 120.11 57.4698C120.11 57.8698 120.55 58.0898 121.5 57.7898C130.68 54.8998 159.4 63.6398 162.7 125.59C163.373 139.593 162.834 153.629 161.09 167.54C158.77 175.2 158.64 182.16 158.03 184.68C154.49 189.14 152.09 191.43 150.93 191.58L151.36 191.36C161.92 184.99 192.57 166.93 196.71 116.28C197.03 112.43 197.16 108.53 197.13 104.56C196.69 43.3498 148.25 45.8698 135.06 50.0198Z" fill="#FAAE75"/>
<path d="M135.08 50.1497C129.809 51.7976 124.831 54.2681 120.33 57.4698C120.47 57.7498 121.04 57.8798 122.04 57.5698C131.73 54.5098 163.04 61.8598 165.76 124.04C166.328 138.132 165.487 152.245 163.25 166.17C160.7 174.05 160.36 181.27 158.74 184C155.57 189.33 151.87 191.4 150.17 191.94L150.6 191.72C160.89 185.64 192.26 167.87 196.6 116.79C196.93 112.94 197.07 109.03 197.06 105.03C196.87 43.4697 148.28 45.9897 135.08 50.1497Z" fill="#FAAE76"/>
<path d="M135.1 50.2802C129.91 51.9093 125.005 54.3349 120.56 57.4702C121.219 57.6736 121.93 57.6309 122.56 57.3502C132.76 54.1402 166.68 60.0802 168.8 122.51C169.271 136.693 168.131 150.884 165.4 164.81C162.62 172.91 161.56 180.18 159.4 183.34C155.65 188.89 151.6 191.34 149.4 192.34C149.552 192.277 149.699 192.203 149.84 192.12C159.84 186.31 191.94 168.87 196.48 117.34C196.82 113.5 196.987 109.573 196.98 105.56C196.98 43.6102 148.31 46.1202 135.1 50.2802Z" fill="#FAAF76"/>
<path d="M135.11 50.4099C130.008 51.9993 125.178 54.3599 120.79 57.4099C121.581 57.4646 122.375 57.3521 123.12 57.0798C133.83 53.6998 170.34 58.2399 171.88 120.91C172.262 135.192 170.816 149.464 167.58 163.38C164.58 171.7 162.8 179.02 160.15 182.61C157.198 186.835 153.252 190.269 148.66 192.61C148.81 192.53 148.96 192.48 149.1 192.39C158.83 186.88 191.54 169.72 196.37 117.75C196.723 113.923 196.907 109.987 196.92 105.94C197.12 43.7398 148.34 46.2499 135.11 50.4099Z" fill="#FAB077"/>
<path d="M135.13 50.5399C130.108 52.1147 125.349 54.4302 121.01 57.4098C121.912 57.3296 122.801 57.145 123.66 56.8599C134.88 53.3299 173.97 56.4598 174.93 119.38C175.228 133.767 173.481 148.124 169.74 162.02C166.51 170.56 164.04 177.9 160.86 181.94C157.372 186.502 152.937 190.255 147.86 192.94L148.31 192.73C157.75 187.51 191.2 170.64 196.22 118.23C196.58 114.41 196.777 110.463 196.81 106.39C197.27 43.8699 148.37 46.3699 135.13 50.5399Z" fill="#FAB178"/>
<path d="M135.15 50.6701C130.21 52.2173 125.523 54.4814 121.24 57.3901C122.253 57.1892 123.254 56.9355 124.24 56.6301C135.98 52.9301 177.64 54.6301 178.03 117.82C178.222 132.327 176.144 146.775 171.87 160.64C168.41 169.4 165.26 176.76 161.54 181.26C157.555 186.171 152.658 190.266 147.12 193.32C147.27 193.24 147.42 193.19 147.57 193.11C156.72 188.11 190.91 171.61 196.12 118.76C196.494 114.94 196.7 110.983 196.74 106.89C197.41 44.0001 148.39 46.4701 135.15 50.6701Z" fill="#FAB178"/>
<path d="M135.17 50.7998C130.311 52.3191 125.697 54.532 121.47 57.3698C122.4 57.0998 123.47 56.7898 124.74 56.3698C136.99 52.5098 181.22 52.8298 181.05 116.23C181 133.59 178.14 147.7 174.05 159.23C170.37 168.23 166.53 175.61 162.27 180.55C157.78 185.809 152.402 190.24 146.38 193.64C146.53 193.57 146.69 193.52 146.84 193.44C155.72 188.77 190.62 172.53 196.03 119.23C196.41 115.423 196.63 111.456 196.69 107.33C197.56 44.1198 148.42 46.6298 135.17 50.7998Z" fill="#FAB279"/>
<path d="M135.19 50.93C130.413 52.4235 125.872 54.5849 121.7 57.35C122.78 56.97 123.96 56.58 125.28 56.16C138.04 52.16 184.76 51.06 184.11 114.71C183.88 132.29 180.75 146.44 176.23 157.87C172.31 167.08 167.8 174.48 162.98 179.87C157.998 185.482 152.143 190.254 145.64 194C145.79 193.92 145.94 193.87 146.09 193.8C154.68 189.38 190.33 173.47 195.93 119.73C196.317 115.93 196.55 111.957 196.63 107.81C197.7 44.25 148.45 46.75 135.19 50.93Z" fill="#FBB37A"/>
<path d="M135.21 51.0599C130.511 52.5254 126.039 54.6355 121.92 57.3299C123.16 56.8399 124.45 56.3299 125.82 55.9299C139.09 51.7499 188.46 49.2499 187.16 113.15C186.16 163.93 160.03 185.45 144.88 194.35C145.03 194.28 145.19 194.23 145.34 194.15C154.25 189.76 195.26 172.15 196.56 108.28C197.86 44.4099 148.48 46.8799 135.21 51.0599Z" fill="#FBB47A"/>
<path d="M117.06 207.47L119.69 206.08C83.5103 137.66 105.33 69.2801 105.56 68.5901L102.73 67.6602C102.5 68.3402 80.2702 137.88 117.06 207.47Z" fill="#008251"/>
<path d="M116.07 46.17C116.07 46.17 121.28 13.47 135.41 7.94C143.74 4.65763 152.304 2.00355 161.03 0C161.03 0 156.26 15.73 154.33 19.69C152.4 23.65 139.87 36.31 135.45 37.47C131.03 38.63 115.87 46.92 115.87 46.92" fill="#008251"/>
<path d="M116.13 46.08C116.13 46.08 121.32 13.5201 135.43 7.97006C143.728 4.68355 152.267 2.03911 160.97 0.0600586C160.97 0.0600586 156.14 15.4701 154.09 19.4701C152.468 22.0316 150.555 24.3972 148.39 26.5201C143.88 31.25 138.03 36.4201 135.27 37.2401C130.87 38.5801 115.87 46.8201 115.87 46.8201" fill="#008252"/>
<path d="M116.19 45.9998C116.19 45.9998 121.35 13.5698 135.44 7.99985C143.699 4.71317 152.201 2.0752 160.87 0.109863C160.87 0.109863 155.99 15.2499 153.81 19.2899C152.161 21.8222 150.243 24.1691 148.09 26.2899C143.6 30.9699 137.8 36.1199 135.09 37.0099C130.64 38.4599 115.95 46.7299 115.95 46.7299" fill="#008352"/>
<path d="M116.25 45.9102C116.25 45.9102 121.39 13.6102 135.46 8.03015C143.708 4.73614 152.204 2.10449 160.87 0.160156C160.87 0.160156 155.94 15.0102 153.64 19.1002C151.963 21.5961 150.04 23.9177 147.9 26.0302C143.42 30.6802 137.67 35.8101 134.9 36.7701C130.44 38.3301 116 46.6302 116 46.6302" fill="#008453"/>
<path d="M116.31 45.8302C116.31 45.8302 121.42 13.6602 135.47 8.06021C143.683 4.76384 152.151 2.14185 160.79 0.220215C160.79 0.220215 155.79 14.7702 153.37 18.9002C151.683 21.3766 149.757 23.681 147.62 25.7802C143.15 30.3902 137.46 35.4902 134.73 36.5202C130.27 38.2102 116.07 46.5202 116.07 46.5202" fill="#008553"/>
<path d="M116.36 45.74C116.36 45.74 121.46 13.74 135.49 8.09003C143.672 4.78914 152.115 2.17348 160.73 0.27002C160.73 0.27002 155.73 14.53 153.13 18.7C151.422 21.1474 149.494 23.4335 147.37 25.53C142.91 30.1 137.27 35.17 134.55 36.28C130.08 38.09 116.13 46.43 116.13 46.43" fill="#008554"/>
<path d="M116.42 45.6601C116.42 45.6601 121.49 13.7601 135.51 8.12009C143.664 4.81411 152.084 2.20803 160.68 0.330078C160.68 0.330078 155.59 14.2801 152.87 18.4701C151.143 20.893 149.209 23.1615 147.09 25.2501C142.65 29.7701 137.09 34.8301 134.34 36.0001C129.88 37.9401 116.18 46.3001 116.18 46.3001" fill="#008655"/>
<path d="M116.48 45.5699C116.48 45.5699 121.53 13.8099 135.48 8.14987C143.607 4.84023 152.005 2.24053 160.58 0.379883C160.58 0.379883 155.45 14.0399 152.58 18.3099C150.822 20.6954 148.88 22.939 146.77 25.0199C142.35 29.5099 136.77 34.5399 134.1 35.7899C129.63 37.8599 116.18 46.2299 116.18 46.2299" fill="#008755"/>
<path d="M116.54 45.4702C116.54 45.4702 121.54 13.8302 135.54 8.16016C143.63 4.84877 151.995 2.25544 160.54 0.410156C160.54 0.410156 155.36 13.7801 152.39 18.0901C150.627 20.4564 148.685 22.683 146.58 24.7502C142.17 29.2002 136.67 34.2102 133.98 35.5302C129.51 37.7201 116.3 46.1102 116.3 46.1102" fill="#008856"/>
<path d="M116.6 45.4002C116.6 45.4002 121.6 13.9002 135.55 8.21021C143.618 4.88723 151.968 2.2968 160.5 0.470215C160.5 0.470215 155.28 13.5402 152.17 17.8902C150.389 20.2317 148.441 22.4408 146.34 24.5002C141.94 28.9102 136.5 33.8902 133.82 35.2802C129.34 37.6002 116.38 46.0102 116.38 46.0102" fill="#008857"/>
<path d="M116.65 45.32C116.65 45.32 121.65 13.95 135.57 8.24002C143.608 4.91954 151.933 2.34213 160.44 0.540039C160.44 0.540039 155.18 13.32 151.93 17.71C150.133 20.0248 148.178 22.2134 146.08 24.26C141.7 28.63 136.31 33.6 133.64 35.06C129.16 37.5 116.45 45.93 116.45 45.93" fill="#008957"/>
<path d="M116.71 45.2301C116.71 45.2301 121.71 14.0001 135.59 8.23007C143.596 4.90527 151.896 2.33738 160.38 0.560059C160.38 0.560059 155.08 13.0401 151.69 17.4801C149.873 19.7621 147.915 21.9296 145.83 23.9701C141.46 28.3001 136.12 33.25 133.46 34.7701C128.97 37.3501 116.51 45.7701 116.51 45.7701" fill="#008A58"/>
<path d="M116.77 45.1399C116.77 45.1399 121.71 14.0499 135.6 8.2999C143.578 4.97137 151.856 2.40983 160.32 0.649902C160.32 0.649902 154.98 12.8399 151.45 17.3199C149.617 19.5793 147.654 21.7296 145.57 23.7599C141.22 28.0499 135.93 32.9699 133.28 34.5699C128.78 37.2699 116.57 45.7299 116.57 45.7299" fill="#008B59"/>
<path d="M116.87 45.0602C116.87 45.0602 121.78 14.0602 135.66 8.33017C143.608 4.99876 151.86 2.44357 160.3 0.700195C160.3 0.700195 154.92 12.6002 151.25 17.1202C149.401 19.3526 147.435 21.4856 145.36 23.5102C141.02 27.7602 135.78 32.6602 133.14 34.3202C128.64 37.1602 116.67 45.6302 116.67 45.6302" fill="#008B59"/>
<path d="M116.87 44.9698C116.87 44.9698 121.76 14.1398 135.61 8.36975C143.532 5.02814 151.766 2.47906 160.19 0.759766C160.19 0.759766 154.77 12.3598 150.95 16.9198C149.82 18.2698 147.67 20.6998 145.04 23.2498C140.71 27.4598 135.53 32.3497 132.9 34.0797C128.39 37.0797 116.68 45.5398 116.68 45.5398" fill="#008C5A"/>
<path d="M116.94 44.8901C116.94 44.8901 121.81 14.1901 135.65 8.40005C143.541 5.05405 151.749 2.51123 160.15 0.810059C160.15 0.810059 154.69 12.1301 150.73 16.7301C149.58 18.0701 147.42 20.4701 144.8 23.0001C140.49 27.1701 135.36 32 132.74 33.83C128.23 36.93 116.74 45.4401 116.74 45.4401" fill="#008D5B"/>
<path d="M117 44.8001C117 44.8001 121.87 14.2402 135.66 8.47015C143.523 5.1204 151.709 2.58711 160.09 0.910156C160.09 0.910156 154.6 11.9102 150.49 16.5702C149.31 17.9002 147.16 20.2802 144.55 22.7902C140.25 26.9202 135.16 31.7902 132.55 33.6302C128.04 36.8502 116.82 45.3802 116.82 45.3802" fill="#008E5B"/>
<path d="M117.06 44.7202C117.06 44.7202 121.87 14.2902 135.68 8.47018C143.512 5.11608 151.673 2.58904 160.03 0.930176C160.03 0.930176 154.5 11.6602 150.25 16.3402C149.05 17.6702 146.9 20.0202 144.25 22.5002C139.97 26.6002 134.93 31.4202 132.33 33.3502C127.87 36.7002 116.87 45.2402 116.87 45.2402" fill="#008F5C"/>
<path d="M117.12 44.6302C117.12 44.6302 121.92 14.3302 135.7 8.4902C143.501 5.13313 151.637 2.61239 159.97 0.970215C159.97 0.970215 154.41 11.4202 149.97 16.1302C148.75 17.4502 146.59 19.7802 143.97 22.2402C139.69 26.2902 134.71 31.1002 132.12 33.1002C127.6 36.5902 116.88 45.1002 116.88 45.1002" fill="#008F5D"/>
<path d="M117.17 44.55C117.17 44.55 121.95 14.38 135.71 8.55005C143.483 5.18922 151.597 2.678 159.91 1.06006C159.91 1.06006 154.32 11.2101 149.77 15.9701C148.52 17.2801 146.37 19.5801 143.77 21.9701C139.51 25.9701 134.58 30.77 132 32.83C127.48 36.45 117 45.0201 117 45.0201" fill="#00905D"/>
<path d="M117.23 44.4701C117.23 44.4701 121.99 14.4701 135.73 8.56009C143.478 5.19006 151.574 2.68166 159.87 1.08008C159.87 1.08008 154.25 10.9501 149.55 15.7401C148.28 17.0401 146.12 19.3201 143.55 21.7401C139.31 25.7401 134.43 30.4801 131.86 32.6101C127.34 36.3601 117.1 44.9401 117.1 44.9401" fill="#00915E"/>
<path d="M117.29 44.3801C117.29 44.3801 122.02 14.4801 135.74 8.58011C143.454 5.21105 151.521 2.71556 159.79 1.14014C159.79 1.14014 154.14 10.7101 149.29 15.5401C147.99 16.8401 145.84 19.0901 143.29 21.4801C139.06 25.4101 134.23 30.1701 131.67 32.3701C127.14 36.2501 117.16 44.8401 117.16 44.8401" fill="#00925F"/>
<path d="M117.35 44.2899C117.35 44.2899 122.06 14.53 135.76 8.60995C143.453 5.23423 151.505 2.74487 159.76 1.18994C159.76 1.18994 154.07 10.4799 149.07 15.3399C147.75 16.6299 145.6 18.86 143.07 21.2299C138.86 25.1199 134.07 29.8599 131.53 32.1199L117.26 44.7399" fill="#009260"/>
<path d="M117.41 44.2097C117.41 44.2097 122.09 14.5698 135.78 8.63977C143.435 5.26101 151.455 2.77786 159.68 1.23975C159.68 1.23975 153.96 10.2397 148.81 15.1497C147.47 16.4297 145.31 18.6298 142.75 20.9798C138.55 24.8298 133.83 29.5498 131.29 31.8798C126.76 36.0198 117.29 44.6398 117.29 44.6398" fill="#009360"/>
<path d="M117.46 44.1198C117.46 44.1198 122.13 14.6198 135.79 8.66983C143.415 5.28308 151.414 2.80923 159.62 1.2998C159.62 1.2998 153.87 10.0198 148.57 14.9498C147.2 16.2298 145.05 18.4098 142.5 20.7198C138.31 24.5398 133.65 29.2298 131.11 31.6298C126.57 35.9098 117.32 44.5398 117.32 44.5398" fill="#009461"/>
<path d="M117.52 44.0401C117.52 44.0401 122.17 14.6701 135.81 8.7001C143.404 5.30927 151.378 2.84164 159.56 1.3501C159.56 1.3501 153.78 9.79009 148.33 14.7501C146.94 16.0201 144.78 18.1801 142.24 20.4701C138.07 24.2401 133.46 28.9201 130.93 31.3901C126.39 35.8001 117.39 44.4501 117.39 44.4501" fill="#009562"/>
<path d="M117.58 43.9502C117.58 43.9502 122.2 14.7202 135.82 8.73016C143.386 5.33506 151.338 2.87685 159.5 1.41016C159.5 1.41016 153.69 9.56014 148.09 14.5501C146.68 15.8201 144.52 17.9502 141.99 20.2202C137.83 23.9502 133.27 28.6102 130.75 31.1402C126.21 35.6902 117.45 44.3502 117.45 44.3502" fill="#009662"/>
<path d="M117.64 43.87C117.64 43.87 122.24 14.77 135.84 8.75998C143.375 5.3606 151.302 2.90855 159.44 1.45996C155.975 6.09612 152.103 10.4133 147.87 14.36C146.43 15.61 144.28 17.72 141.75 19.97C137.6 23.66 133.1 28.3 130.58 30.9C126.05 35.58 117.53 44.25 117.53 44.25" fill="#009763"/>
<path d="M117.7 43.7802C117.7 43.7802 122.27 14.7802 135.85 8.78021C143.356 5.3679 151.262 2.91201 159.38 1.47021C155.827 6.01676 151.889 10.249 147.61 14.1202C146.15 15.3702 143.99 17.4502 141.47 19.6702C137.34 23.3302 132.89 27.9502 130.38 30.6102C125.85 35.4302 117.58 44.1102 117.58 44.1102" fill="#009764"/>
<path d="M117.75 43.6998C117.75 43.6998 122.31 14.8598 135.87 8.81982C143.346 5.41332 151.226 2.97689 159.32 1.56982C155.684 6.02122 151.687 10.1652 147.37 13.9598C145.89 15.2098 143.73 17.2598 141.22 19.4598C137.372 22.9231 133.701 26.5777 130.22 30.4098C125.68 35.3598 117.66 44.0498 117.66 44.0498" fill="#009865"/>
<path d="M117.81 43.6101C117.81 43.6101 122.34 14.9101 135.89 8.85013C143.335 5.43914 151.19 3.00883 159.26 1.62012C155.541 5.97794 151.485 10.0371 147.13 13.7601C145.62 15.0101 143.46 17.0301 140.96 19.2101C137.107 22.648 133.455 26.3041 130.02 30.1601L117.7 43.9501" fill="#009966"/>
<path d="M117.87 43.5302C117.87 43.5302 122.38 14.9602 135.87 8.88019C143.289 5.46441 151.127 3.04347 159.18 1.68018C155.371 5.93684 151.257 9.91068 146.87 13.5702C145.34 14.8002 143.18 16.8002 140.68 18.9502C136.828 22.3797 133.2 26.0539 129.82 29.9502C125.28 35.1702 117.74 43.8802 117.74 43.8802" fill="#009A66"/>
<path d="M117.93 43.4698C117.93 43.4698 122.41 15.0398 135.93 8.93976C143.318 5.51942 151.131 3.1046 159.16 1.75977C155.26 5.91656 151.084 9.80539 146.66 13.3997C145.11 14.6297 142.95 16.5998 140.46 18.7298C136.604 22.1325 132.998 25.8087 129.67 29.7298C125.13 35.0798 117.84 43.8098 117.84 43.8098" fill="#009B67"/>
<path d="M117.99 43.3598C117.99 43.3598 122.45 15.0498 135.93 8.93979C143.29 5.51556 151.082 3.10688 159.09 1.77979C155.101 5.83294 150.866 9.63681 146.41 13.1698C144.84 14.3998 142.67 16.3398 140.19 18.4498C136.331 21.8236 132.75 25.5021 129.48 29.4498C124.94 34.9398 117.89 43.6698 117.89 43.6698" fill="#009C68"/>
<path d="M118.04 43.2698C118.04 43.2698 122.48 15.0998 135.95 8.96985C143.279 5.54235 151.045 3.14303 159.03 1.83984C154.952 5.7839 150.659 9.49957 146.17 12.9698C144.57 14.1998 142.41 16.1099 139.94 18.1999C136.078 21.5476 132.518 25.2285 129.3 29.1999C124.76 34.8299 117.95 43.5699 117.95 43.5699" fill="#009C69"/>
<path d="M118.1 43.1901C118.1 43.1901 122.52 15.1901 135.97 9.00012C143.267 5.56816 151.009 3.17494 158.97 1.89014C158.97 1.89014 152.97 7.53012 145.97 12.7801C144.35 13.9901 142.18 15.8801 139.72 17.9401C135.86 21.2649 132.324 24.9481 129.16 28.9401C124.62 34.7001 118.05 43.4501 118.05 43.4501" fill="#009D69"/>
<path d="M118.16 43.1002C118.16 43.1002 122.55 15.2002 135.98 9.03018C143.236 5.59772 150.943 3.2139 158.87 1.9502C158.87 1.9502 152.8 7.31017 145.65 12.5802C144.01 13.7902 141.84 15.6502 139.38 17.6902C135.518 20.9872 132.006 24.6733 128.9 28.6902C124.36 34.5702 118.04 43.3402 118.04 43.3402" fill="#009E6A"/>
<path d="M118.22 43.02C118.22 43.02 122.59 15.25 136 9.01999C148.87 3.13999 158.87 2 158.87 2C158.87 2 152.78 7.09 145.47 12.38C143.81 13.59 141.64 15.38 139.19 17.44C135.325 20.7147 131.831 24.4035 128.77 28.44C124.24 34.44 118.16 43.25 118.16 43.25" fill="#009F6B"/>
<path d="M118.28 42.9298C118.28 42.9298 122.62 15.2898 136.01 9.08984C148.85 3.15984 158.79 2.08984 158.79 2.08984C158.79 2.08984 152.68 6.90985 145.21 12.2198C143.52 13.4298 141.35 15.2198 138.91 17.2198C135.048 20.4729 131.578 24.1644 128.57 28.2198C124.04 34.3798 118.2 43.1699 118.2 43.1699" fill="#00A06C"/>
<path d="M118.33 42.8501C118.33 42.8501 122.66 15.3401 136.03 9.12012C148.83 3.18012 158.74 2.12012 158.74 2.12012C158.74 2.12012 152.59 6.66012 144.97 12.0001C143.26 13.2001 141.09 15.0001 138.66 16.9401C134.796 20.1688 131.346 23.8636 128.39 27.9401C123.87 34.2301 118.26 43.0401 118.26 43.0401" fill="#00A16D"/>
<path d="M118.39 42.7599C118.39 42.7599 122.7 15.3899 136.04 9.1499C148.82 3.1999 158.68 2.1499 158.68 2.1499C158.68 2.1499 152.51 6.41991 144.73 11.7799C143 12.9699 140.83 14.7299 138.4 16.6699C134.534 19.8726 131.108 23.5711 128.21 27.6699C123.69 34.0899 118.33 42.9099 118.33 42.9099" fill="#00A26D"/>
<path d="M118.45 42.6802C118.45 42.6802 122.73 15.4402 136.06 9.18018C148.8 3.18018 158.62 2.18018 158.62 2.18018C158.62 2.18018 152.43 6.18017 144.49 11.5502C142.74 12.7402 140.56 14.4702 138.14 16.3902C134.278 19.5718 130.875 23.2738 128.03 27.3902C123.51 33.9602 118.39 42.7802 118.39 42.7802" fill="#00A26E"/>
<path d="M118.51 42.59C118.51 42.59 122.77 15.49 136.08 9.21002C148.78 3.21002 158.56 2.27002 158.56 2.27002C158.56 2.27002 152.35 6.00002 144.25 11.4C142.48 12.58 140.3 14.28 137.89 16.17C134.036 19.3502 130.667 23.0762 127.89 27.23C123.37 33.93 118.49 42.76 118.49 42.76" fill="#00A36F"/>
<path d="M118.57 42.4698C118.57 42.4698 122.8 15.4698 136.09 9.1998C148.76 3.1998 158.5 2.27979 158.5 2.27979C158.5 2.27979 152.27 5.73979 144.01 11.1598C142.21 12.3398 140.01 14.0098 137.63 15.8798C133.751 19.0336 130.379 22.7636 127.63 26.9398C123.11 33.7798 118.47 42.6198 118.47 42.6198" fill="#00A470"/>
<path d="M118.62 42.4702C118.62 42.4702 122.84 15.6302 136.11 9.32019C148.75 3.32019 158.44 2.43018 158.44 2.43018C158.44 2.43018 152.18 5.61017 143.77 11.0502C141.95 12.2302 139.77 13.8702 137.37 15.7202C133.509 18.8608 130.173 22.5979 127.49 26.7902C122.97 33.7902 118.58 42.6102 118.58 42.6102" fill="#00A571"/>
<path d="M118.68 42.3402C118.68 42.3402 122.87 15.6302 136.12 9.34021C148.73 3.34021 158.38 2.47021 158.38 2.47021C153.269 4.96423 148.31 7.75913 143.53 10.8402C141.69 12.0202 139.53 13.6302 137.12 15.4502C133.261 18.5535 129.946 22.2777 127.31 26.4702C124.136 31.6446 121.242 36.9856 118.64 42.4702" fill="#00A672"/>
<path d="M118.74 42.2498C118.74 42.2498 122.91 15.6797 136.14 9.32974C148.71 3.32974 158.33 2.48975 158.33 2.48975C153.136 4.82177 148.123 7.53591 143.33 10.6098C141.46 11.7798 139.28 13.3598 136.9 15.1598C133.037 18.2628 129.744 22.0157 127.17 26.2498C124.04 31.4459 121.225 36.8257 118.74 42.3598" fill="#00A773"/>
<path d="M118.8 42.17C118.8 42.17 122.94 15.73 136.16 9.36005C148.69 3.36005 158.27 2.54004 158.27 2.54004C152.976 4.71365 147.884 7.34706 143.05 10.41C141.16 11.58 138.98 13.13 136.61 14.91C132.748 17.9942 129.475 21.7513 126.95 26C123.862 31.2308 121.13 36.663 118.77 42.26" fill="#00A874"/>
<path d="M118.87 42.0798C118.87 42.0798 122.99 15.7699 136.18 9.38986C148.68 3.38986 158.18 2.58984 158.18 2.58984C152.8 4.59723 147.639 7.15056 142.78 10.2098C140.87 11.3698 138.68 12.8999 136.32 14.6599C132.456 17.7264 129.203 21.4917 126.73 25.7599C123.686 31.0237 121.036 36.5053 118.8 42.1599" fill="#00A975"/>
<path d="M118.87 41.9999C118.87 41.9999 122.97 15.8199 136.15 9.4299C148.61 3.4299 158.15 2.6499 158.15 2.6499C152.687 4.48535 147.458 6.9556 142.57 10.0099C140.64 11.1699 138.45 12.6699 136.09 14.3999C132.236 17.4423 129.007 21.2013 126.58 25.4699C123.568 30.7871 120.99 36.3384 118.87 42.0699" fill="#00AB75"/>
<path d="M118.97 41.9102C118.97 41.9102 123.05 15.9102 136.2 9.46017C148.64 3.40017 158.09 2.7002 158.09 2.7002C158.09 2.7002 151.7 4.28019 142.33 9.82019C140.38 10.9702 138.19 12.4502 135.84 14.1502C131.978 17.1847 128.768 20.9667 126.4 25.2702C123.431 30.607 120.938 36.1954 118.95 41.9702" fill="#00AC77"/>
<path d="M119.03 41.8198C119.03 41.8198 123.03 15.9197 136.22 9.48975C148.62 3.41975 158.03 2.75977 158.03 2.75977C158.03 2.75977 151.62 4.05975 142.09 9.61975C140.09 10.7698 137.92 12.2197 135.58 13.8997C131.77 16.6397 128.58 20.8998 126.22 25.0298C123.295 30.4036 120.884 36.042 119.02 41.8698" fill="#00AD78"/>
<path d="M119.09 41.7401C119.09 41.7401 123.09 15.97 136.24 9.52005C148.6 3.44005 157.97 2.81006 157.97 2.81006C157.97 2.81006 151.54 3.81007 141.85 9.42007C139.85 10.5701 137.66 11.9901 135.33 13.6401C131.53 16.3401 128.4 20.5601 126.04 24.7801C123.129 30.1911 120.783 35.8879 119.04 41.7801" fill="#00AE79"/>
<path d="M119.15 41.6498C119.15 41.6498 123.15 16.0098 136.25 9.54984C148.58 3.46984 157.87 2.85986 157.87 2.85986C157.87 2.85986 151.42 3.65985 141.57 9.21985C139.57 10.3698 137.35 11.7599 135.03 13.3899C131.25 16.0499 128.17 20.2499 125.82 24.5399C122.95 29.9824 120.697 35.7279 119.1 41.6699" fill="#00B07A"/>
<path d="M119.2 41.5702C119.2 41.5702 123.2 16.0602 136.27 9.57016C148.56 3.47016 157.85 2.91016 157.85 2.91016C157.85 2.91016 148.45 3.65016 134.85 13.1302C123.87 20.7602 119.2 41.5702 119.2 41.5702Z" fill="#00B27B"/>
<path d="M110.07 16.6802C106.94 17.2202 107.07 19.9402 107.12 22.3402C107.321 25.0829 106.981 27.8384 106.12 30.4502C103.48 38.2002 104.21 53.8602 104.24 54.5202C104.249 54.7172 104.297 54.9104 104.381 55.0889C104.465 55.2674 104.583 55.4276 104.729 55.5604C104.875 55.6931 105.045 55.7959 105.231 55.8628C105.416 55.9297 105.613 55.9594 105.81 55.9502C106.007 55.941 106.2 55.8931 106.379 55.8092C106.557 55.7254 106.718 55.6071 106.85 55.4614C106.983 55.3156 107.086 55.1451 107.153 54.9596C107.22 54.7741 107.249 54.5772 107.24 54.3802C107.24 54.2202 106.51 38.6202 108.96 31.3802C109.931 28.43 110.312 25.3175 110.08 22.2202C109.99 19.6902 110.08 19.6702 110.57 19.5902C111.085 19.4853 111.617 19.5099 112.12 19.6618C112.623 19.8136 113.08 20.088 113.45 20.4602C113.925 21.0251 114.255 21.6979 114.41 22.4195C114.565 23.1412 114.541 23.8899 114.34 24.6002L112.59 31.1002C110.29 39.2302 108.4 46.2102 108.68 49.2502C108.697 49.4448 108.751 49.6343 108.841 49.8077C108.931 49.9811 109.054 50.135 109.204 50.2605C109.354 50.386 109.527 50.4806 109.713 50.5389C109.9 50.5972 110.096 50.6181 110.29 50.6002C110.683 50.5622 111.045 50.3707 111.298 50.0675C111.551 49.7642 111.674 49.3736 111.64 48.9802C111.39 46.2402 113.84 37.6202 115.45 31.9102L117.25 25.2002C117.554 24.0177 117.562 22.7783 117.272 21.5922C116.983 20.406 116.405 19.3096 115.59 18.4002C114.884 17.6801 114.01 17.1461 113.047 16.846C112.083 16.5458 111.061 16.4889 110.07 16.6802Z" fill="url(#paint0_linear)"/>
<path d="M102.19 47.1602C102.19 47.1602 90.48 25.2102 72.09 26.7302C53.7 28.2502 39 34.6302 31.21 45.6702C32.05 47.8502 40.03 42.6002 43.67 43.3402C47.31 44.0802 67.87 59.8502 84.46 56.0702C101.05 52.2902 101.58 47.6702 102.19 47.1602Z" fill="#008251"/>
<path d="M72.0602 26.7598C53.8302 28.2498 39.1202 34.5998 31.2402 45.6598C32.1402 47.7398 40.0302 42.6598 43.6802 43.2398C47.5702 43.8798 68.0402 59.2998 84.4702 55.6698C100.9 52.0398 101.56 47.6698 102.16 47.1498C102.16 47.1498 90.4902 25.2698 72.0602 26.7598Z" fill="#008252"/>
<path d="M72.0398 26.7898C53.9698 28.2498 39.2498 34.5698 31.2798 45.6398C32.2798 47.6398 40.0198 42.6398 43.6798 43.1398C47.8298 43.6898 68.1798 58.7498 84.4798 55.2698C100.78 51.7898 101.53 47.6398 102.12 47.1398C102.12 47.1398 90.4998 25.3198 72.0398 26.7898Z" fill="#008352"/>
<path d="M72.0101 26.8102C54.1001 28.2502 39.3801 34.5502 31.3101 45.6302C32.3101 47.5402 40.0301 42.6302 43.6901 43.0502C48.1001 43.4902 68.32 58.2002 84.48 54.8702C100.64 51.5402 101.48 47.6202 102.09 47.1302C102.09 47.1302 90.5101 25.3802 72.0101 26.8102Z" fill="#008453"/>
<path d="M71.9801 26.8402C54.2301 28.2502 39.5101 34.5202 31.3501 45.6202C32.4101 47.4302 40.0401 43.2602 43.6901 42.9502C48.3701 42.5502 68.4601 57.6502 84.4901 54.4702C100.52 51.2902 101.49 47.6102 102.06 47.1202C102.06 47.1202 90.5201 25.4702 71.9801 26.8402Z" fill="#008553"/>
<path d="M71.9499 26.8698C54.3599 28.2498 39.6399 34.4898 31.3799 45.6098C32.4999 47.3298 40.0699 43.3498 43.6999 42.8498C48.6099 42.1798 68.5999 57.0998 84.4999 54.0698C100.4 51.0398 101.45 47.5898 102.02 47.0698C102.02 47.1098 90.5399 25.4698 71.9499 26.8698Z" fill="#008554"/>
<path d="M71.9199 26.89C54.4899 28.25 39.7699 34.4699 31.4199 45.5899C32.5899 47.2299 40.1099 43.4099 43.6999 42.7599C48.8499 41.7599 68.6999 56.55 84.4999 53.67C100.3 50.79 101.42 47.5699 101.99 47.0999C101.99 47.0999 90.5499 25.54 71.9199 26.89Z" fill="#008655"/>
<path d="M71.8699 26.9201C54.5899 28.2501 39.8699 34.4401 31.4199 45.5801C32.6499 47.1201 40.1299 43.4601 43.6699 42.6601C49.0599 41.4501 68.8499 56.0001 84.4799 53.2801C100.11 50.5601 101.36 47.5601 101.93 47.0901C101.96 47.0901 90.5599 25.5901 71.8699 26.9201Z" fill="#008755"/>
<path d="M71.8702 26.9499C54.7602 28.2499 40.0202 34.4099 31.4902 45.5699C32.7702 47.0199 40.2002 43.4799 43.7102 42.5699C49.3202 41.0999 69.0202 55.4599 84.5202 52.8899C100.02 50.3199 101.37 47.5499 101.92 47.0899C101.92 47.0799 90.5702 25.6499 71.8702 26.9499Z" fill="#008856"/>
<path d="M71.8698 26.9801C54.8698 28.2401 40.1798 34.3801 31.5498 45.5601C32.8798 46.9101 40.2698 43.4901 43.7398 42.4701C49.5898 40.7401 69.1798 54.8701 84.5598 52.4701C99.9398 50.0701 101.37 47.5201 101.92 47.0601C101.87 47.0701 90.5798 25.7001 71.8698 26.9801Z" fill="#008857"/>
<path d="M71.8101 26.9999C55.0201 28.2399 40.2801 34.3599 31.5601 45.5499C32.9401 46.8099 40.2801 43.4899 43.7201 42.3699C49.7901 40.3699 69.2901 54.3699 84.5301 52.0799C99.7701 49.7899 101.31 47.5099 101.86 47.0799C101.87 47.0599 90.5901 25.7599 71.8101 26.9999Z" fill="#008957"/>
<path d="M71.7801 27.0301C55.1501 28.2401 40.4101 34.3301 31.6001 45.5301C33.0301 46.7101 40.3201 43.4801 43.7201 42.2701C50.0201 40.0401 69.4301 53.7701 84.5401 51.6801C99.6501 49.5901 101.29 47.4701 101.87 47.0501C101.87 47.0501 90.6001 25.8101 71.7801 27.0301Z" fill="#008A58"/>
<path d="M71.7599 27.0601C55.2799 28.2401 40.5299 34.3001 31.6299 45.5201C33.1199 46.6001 40.3599 43.4501 43.7199 42.1801C50.2499 39.7001 69.5699 53.1801 84.5499 51.2801C99.5299 49.3801 101.26 47.4801 101.79 47.0401C101.79 47.0401 90.6099 25.8701 71.7599 27.0601Z" fill="#008B59"/>
<path d="M71.7299 27.0798C55.4099 28.2398 40.6599 34.2798 31.6699 45.5098C33.2099 46.5098 40.3899 43.4198 43.7299 42.0798C50.4899 39.3598 69.7299 52.6598 84.5499 50.8798C99.5499 49.0898 101.23 47.4598 101.76 47.0298C101.76 47.0298 90.6199 25.9198 71.7299 27.0798Z" fill="#008B59"/>
<path d="M71.7002 27.1101C55.5402 28.2401 40.7902 34.2501 31.7002 45.5001C33.3002 46.3901 40.4302 43.3801 43.7002 41.9801C50.7002 39.0301 69.8202 52.1101 84.5302 50.4801C99.4102 48.8401 101.17 47.4801 101.69 47.0201C101.72 47.0201 90.6302 25.9701 71.7002 27.1101Z" fill="#008C5A"/>
<path d="M71.6702 27.1402C55.6702 28.2402 40.9202 34.2202 31.7402 45.4802C33.3902 46.2902 40.4602 43.3302 43.7402 41.8902C50.9602 38.7002 69.9902 51.5602 84.5703 50.0902C99.3303 48.5902 101.18 47.4302 101.69 47.0102C101.69 47.0102 90.6402 26.0302 71.6702 27.1402Z" fill="#008D5B"/>
<path d="M71.64 27.1601C55.81 28.2401 41.05 34.16 31.77 45.47C33.48 46.19 40.2 42.3201 43.77 41.7901C51.88 40.5701 70.16 51.01 84.6 49.6901C99.24 48.35 101.18 47.42 101.69 47C101.66 47 90.65 26.0801 71.64 27.1601Z" fill="#008E5B"/>
<path d="M71.6201 27.1902C55.9401 28.1902 41.1701 34.1902 31.8101 45.4602C33.5701 46.0802 40.2201 42.2702 43.7501 41.6902C52.1401 40.3202 70.27 50.4602 84.58 49.2902C99.1001 48.1002 101.12 47.4002 101.63 46.9902C101.63 46.9902 90.6601 26.1402 71.6201 27.1902Z" fill="#008F5C"/>
<path d="M71.5898 27.2202C56.0698 28.2202 41.2998 34.1402 31.8398 45.4502C33.6598 45.9802 40.2298 42.2201 43.7498 41.5901C52.4298 40.0601 70.4098 49.9002 84.5898 48.8902C98.9898 47.8902 101.1 47.3902 101.59 46.9802C101.59 46.9802 90.6698 26.1902 71.5898 27.2202Z" fill="#008F5D"/>
<path d="M71.5599 27.2399C56.1999 28.2399 41.4299 34.1199 31.8799 45.4299C33.7499 45.8799 40.2399 42.16 43.7599 41.5C52.7599 39.8 70.5499 49.35 84.5899 48.5C98.8699 47.62 101.07 47.38 101.59 46.98C101.56 46.97 90.6799 26.2499 71.5599 27.2399Z" fill="#00905D"/>
<path d="M71.5302 27.2699C56.3302 28.2699 41.5302 34.09 31.9102 45.42C33.8402 45.77 40.2602 42.11 43.7602 41.42C53.0102 39.56 70.6902 48.82 84.6002 48.11C98.7602 47.39 101.04 47.37 101.53 46.98C101.53 46.96 90.7002 26.2999 71.5302 27.2699Z" fill="#00915E"/>
<path d="M71.5102 27.2999C56.5102 28.2299 41.6902 34.06 31.9502 45.41C33.9502 45.67 40.2702 42.0499 43.7602 41.2999C53.3002 39.2999 70.8302 48.25 84.6102 47.69C98.6102 47.12 101.02 47.34 101.49 46.95C101.49 46.95 90.7102 26.3499 71.5102 27.2999Z" fill="#00925F"/>
<path d="M71.48 27.3199C56.6 28.2299 41.81 34.0399 31.98 45.3999C33.98 45.5599 40.28 41.9899 43.77 41.2099C53.59 38.9899 70.97 47.6999 84.61 47.2899C98.54 46.8799 100.99 47.2899 101.46 46.9399C101.46 46.9399 90.72 26.4099 71.48 27.3199Z" fill="#009260"/>
<path d="M71.45 27.3499C56.73 28.2299 41.94 34.0099 32.02 45.3499C34.1 45.4299 40.3 41.8998 43.77 41.0798C53.87 38.6898 71.11 47.0798 84.62 46.8699C98.43 46.5998 100.96 47.2799 101.43 46.8699C101.43 46.9298 90.73 26.4699 71.45 27.3499Z" fill="#009360"/>
<path d="M71.42 27.38C56.86 28.23 42.0701 33.98 32.0601 45.38C34.1901 45.38 40.3101 41.8899 43.7801 41.0199C54.1501 38.4499 71.2501 46.61 84.6301 46.51C98.3101 46.4 100.94 47.3 101.39 46.93C101.39 46.92 90.74 26.52 71.42 27.38Z" fill="#009461"/>
<path d="M71.3898 27.4101C56.9898 28.2301 42.1998 33.9501 32.0898 45.3601C34.2798 45.2501 40.3198 41.8201 43.7798 40.9201C54.4398 38.1501 71.3898 45.9201 84.6398 46.1001C98.1998 46.2901 100.91 47.2801 101.36 46.9101C101.36 46.9101 90.7498 26.5701 71.3898 27.4101Z" fill="#009562"/>
<path d="M71.3699 27.4702C57.1199 28.2702 42.3699 33.9702 32.1299 45.3902C34.3699 45.1902 40.3299 41.8002 43.7899 40.8602C54.7199 37.8602 71.5299 45.5402 84.6399 45.7402C98.0899 45.9402 100.88 47.3002 101.33 46.9402C101.33 46.9002 90.7599 26.6302 71.3699 27.4702Z" fill="#009662"/>
<path d="M71.3402 27.4698C57.2602 28.2398 42.4502 33.9098 32.1602 45.3498C34.4602 45.0498 40.3402 41.6998 43.7902 40.7298C55.0002 37.5798 71.6702 44.9598 84.6502 45.3098C97.9802 45.6698 100.85 47.2498 101.29 46.8998C101.29 46.8898 90.7702 26.6798 71.3402 27.4698Z" fill="#009763"/>
<path d="M71.3102 27.4701C57.3902 28.2101 42.5802 33.8501 32.2002 45.3001C34.5502 44.9201 40.3502 41.6101 43.7902 40.6101C55.2702 37.2501 71.7902 44.3801 84.6602 44.8801C97.8702 45.4001 100.83 47.2101 101.26 46.8801C101.26 46.8801 90.7802 26.7301 71.3102 27.4701Z" fill="#009764"/>
<path d="M71.28 27.47C57.52 28.19 42.71 33.81 32.23 45.27C34.64 44.8 40.36 41.53 43.8 40.49C55.55 36.93 71.95 43.81 84.66 44.49C97.75 45.16 100.8 47.2 101.23 46.86C101.23 46.87 90.79 26.79 71.28 27.47Z" fill="#009865"/>
<path d="M71.25 27.5399C57.65 28.2199 42.84 33.8199 32.25 45.2999C34.71 44.7299 40.35 41.5099 43.78 40.4299C55.78 36.6699 72.07 43.2999 84.65 44.0999C97.65 44.9299 100.75 47.1999 101.17 46.8599C101.19 46.8599 90.8 26.8399 71.25 27.5399Z" fill="#009966"/>
<path d="M71.2298 27.5702C57.7798 28.2202 42.9698 33.7902 32.2998 45.2902C34.8198 44.6302 40.3798 41.4502 43.8098 40.3402C56.0898 36.3402 72.2298 42.7502 84.6798 43.7102C97.5298 44.7102 100.75 47.1802 101.16 46.8502C101.16 46.8502 90.8098 26.9002 71.2298 27.5702Z" fill="#009A66"/>
<path d="M71.1998 27.5898C56.4571 28.2757 42.543 34.6061 32.3398 45.2698C34.9098 44.5298 40.3398 41.3798 43.8098 40.2698C56.3598 36.0798 72.3698 42.2698 84.6798 43.3398C97.4198 44.4798 100.68 47.1899 101.13 46.8599C101.13 46.8299 90.8698 26.9498 71.1998 27.5898Z" fill="#009B67"/>
<path d="M71.1701 27.6198C56.457 28.3224 42.5722 34.635 32.3701 45.2598C34.9901 44.4198 40.3701 41.3198 43.8101 40.1398C56.6301 35.7298 72.5101 41.6598 84.6901 42.9098C97.3101 44.1998 100.69 47.1498 101.09 46.8198C101.09 46.8198 90.8701 27.0098 71.1701 27.6198Z" fill="#009C68"/>
<path d="M71.1402 27.6502C56.4585 28.3648 42.6043 34.6605 32.4102 45.2502C35.0802 44.3202 40.4102 41.2502 43.8202 40.0502C56.8702 35.4702 72.6502 41.1102 84.7001 42.4702C97.1901 43.9202 100.7 47.0902 101.06 46.7702C101.06 46.8102 90.8702 27.0602 71.1402 27.6502Z" fill="#009C69"/>
<path d="M71.1099 27.6699C56.4584 28.4115 42.6359 34.6919 32.4399 45.2399C35.1699 44.2399 40.4399 41.2399 43.8199 39.9499C57.1599 35.0899 72.8199 40.5599 84.6999 42.1099C97.0799 43.7199 100.64 47.1099 101.03 46.7999C101.03 46.7999 90.8699 27.1099 71.1099 27.6699Z" fill="#009D69"/>
<path d="M71.09 27.7C56.4687 28.4521 42.6742 34.7116 32.48 45.22C35.26 44.11 40.41 41.13 43.83 39.85C57.42 34.77 72.93 40.01 84.71 41.71C96.97 43.48 100.61 47.1 100.99 46.79C100.99 46.79 90.87 27.17 71.09 27.7Z" fill="#009E6A"/>
<path d="M71.06 27.73C56.4703 28.4948 42.7066 34.7373 32.52 45.21C35.35 44.01 40.42 41.06 43.83 39.76C57.68 34.44 73.07 39.47 84.72 41.31C96.86 43.24 100.58 47.09 100.96 46.78C100.96 46.78 90.87 27.22 71.06 27.73Z" fill="#009F6B"/>
<path d="M71.0298 27.7501C56.4694 28.5382 42.736 34.766 32.5498 45.2001C35.4398 43.9001 40.4298 41.0001 43.8398 39.6601C57.9398 34.1101 73.2098 38.9201 84.7198 40.9101C96.7198 43.0001 100.56 47.0701 100.93 46.7701C100.93 46.7701 90.8698 27.2801 71.0298 27.7501Z" fill="#00A06C"/>
<path d="M70.9998 27.7802C58.8398 28.2202 43.9998 33.5802 32.5898 45.1902C35.5298 43.8002 40.4298 40.9302 43.8398 39.5602C58.1898 33.7802 73.3498 38.3702 84.7298 40.5602C96.6298 42.8102 100.53 47.1102 100.89 46.8102C100.87 46.7602 90.8699 27.3302 70.9998 27.7802Z" fill="#00A16D"/>
<path d="M70.9701 27.81C58.9701 28.21 44.1201 33.55 32.6201 45.17C35.6201 43.7 40.4401 40.87 43.8501 39.46C58.4501 33.46 73.4901 37.83 84.7401 40.12C96.5201 42.51 100.5 47.04 100.86 46.75C100.87 46.75 90.8701 27.39 70.9701 27.81Z" fill="#00A26D"/>
<path d="M70.9501 27.8302C59.1001 28.2102 44.2502 33.5202 32.6602 45.1602C35.7102 43.5902 40.4402 40.8102 43.8502 39.3702C58.7002 33.1002 73.6302 37.2802 84.7502 39.7202C96.4102 42.2802 100.48 47.0202 100.83 46.7202C100.87 46.7402 90.9202 27.4702 70.9501 27.8302Z" fill="#00A26E"/>
<path d="M70.9199 27.8598C59.2299 28.2098 44.3799 33.4998 32.6899 45.1498C35.7999 43.4898 40.4499 40.7398 43.8499 39.2698C58.9499 32.7598 73.7699 36.7298 84.7499 39.3198C96.2899 42.0398 100.45 47.0098 100.75 46.7298C100.79 46.7298 90.9299 27.4698 70.9199 27.8598Z" fill="#00A36F"/>
<path d="M70.87 27.8902C59.34 28.2102 44.48 33.4702 32.71 45.1402C35.87 43.3802 40.43 40.6802 43.84 39.1402C59.17 32.3902 73.89 36.1402 84.74 38.8902C96.16 41.7702 100.4 46.9602 100.74 46.6902C100.76 46.7202 90.94 27.5502 70.87 27.8902Z" fill="#00A470"/>
<path d="M70.87 27.91C59.5 28.21 44.64 33.44 32.77 45.12C35.99 43.28 40.46 40.61 43.87 39.12C59.45 32.12 74.06 35.68 84.78 38.56C96.08 41.56 100.4 47.02 100.78 46.75C100.73 46.71 90.95 27.6 70.87 27.91Z" fill="#00A571"/>
<path d="M70.8701 27.9401C59.6601 28.2101 44.7901 33.4201 32.8701 45.1101C36.1401 43.1801 40.5301 40.5501 43.9401 38.9801C59.7501 31.7201 74.2601 35.1001 84.8401 38.1201C96.0301 41.3201 100.44 46.9601 100.76 46.7001C100.69 46.7001 90.9601 27.6601 70.8701 27.9401Z" fill="#00A672"/>
<path d="M70.8101 27.9699C59.7601 28.2099 44.8901 33.3899 32.8101 45.0999C36.1301 43.0999 40.4401 40.4799 43.8101 38.8799C59.8601 31.3699 74.2701 34.5499 84.7201 37.7199C95.7801 41.0799 100.28 46.9499 100.6 46.7199C100.66 46.6899 90.9701 27.7099 70.8101 27.9699Z" fill="#00A773"/>
<path d="M70.7801 28.0001C59.8901 28.2101 45.0201 33.3601 32.8701 45.0901C36.4236 42.7984 40.0954 40.6955 43.8701 38.7901C60.1601 31.0101 74.4701 34.0101 84.7901 37.3201C95.7301 40.8401 100.31 46.9301 100.63 46.6801C100.63 46.6801 90.9801 27.7701 70.7801 28.0001Z" fill="#00A874"/>
<path d="M70.7499 28.0201C60.0199 28.2101 45.1399 33.3401 32.8999 45.0801C36.443 42.7441 40.1155 40.6107 43.8999 38.6901C60.4199 30.6901 74.6199 33.4601 84.8099 36.9301C95.6399 40.6001 100.31 46.9302 100.61 46.6702C100.59 46.6702 90.9899 27.8201 70.7499 28.0201Z" fill="#00A975"/>
<path d="M70.7199 28.0501C60.1499 28.2101 45.2699 33.3101 32.9399 45.0501C36.4569 42.6897 40.1062 40.5329 43.8699 38.5901C60.6199 30.3001 74.7299 32.9201 84.7899 36.5301C95.4899 40.3701 100.25 46.9001 100.55 46.6601C100.56 46.6601 91.0099 27.8701 70.7199 28.0501Z" fill="#00AB75"/>
<path d="M70.7002 28.08C60.2802 28.2 45.4002 33.28 32.9702 45.08C36.4655 42.6566 40.1056 40.4492 43.8702 38.47C60.8702 29.9 74.8702 32.35 84.7902 36.1C95.3702 40.1 100.21 46.85 100.51 46.62C100.53 46.65 91.0202 27.93 70.7002 28.08Z" fill="#00AC77"/>
<path d="M70.6698 28.1002C60.4098 28.2002 45.5298 33.2602 33.0098 45.0402C36.4856 42.5992 40.1129 40.3814 43.8698 38.4002C61.0798 29.5702 74.9898 31.8502 84.7898 35.7302C95.2398 39.9102 100.19 46.8702 100.47 46.6402C100.49 46.6402 91.0298 27.9802 70.6698 28.1002Z" fill="#00AD78"/>
<path d="M70.6398 28.1302C60.5498 28.2002 45.6398 33.2302 33.0498 45.0302C36.5034 42.5497 40.1181 40.3014 43.8698 38.3002C61.2998 29.2102 75.1198 31.3002 84.7898 35.3002C95.1198 39.6402 100.15 46.8202 100.43 46.6002C100.46 46.6302 91.0398 28.0402 70.6398 28.1302Z" fill="#00AE79"/>
<path d="M70.6101 28.1599C60.6801 28.1599 45.7801 33.1599 33.0801 45.0099C36.5315 42.5051 40.1462 40.2333 43.9001 38.2099C61.5501 28.8399 75.2901 30.7499 84.8301 34.9299C95.0401 39.4199 100.15 46.8299 100.43 46.6199C100.43 46.6199 91.0501 28.0899 70.6101 28.1599Z" fill="#00B07A"/>
<path d="M100.4 46.6102C100.4 46.6102 91.0601 28.1502 70.5801 28.1802C60.8101 28.1802 45.9101 33.1802 33.1201 45.0002C77.2801 12.4702 99.8701 47.0502 100.4 46.6102Z" fill="#00B27B"/>
<path d="M111.61 210.2C111.61 210.2 57.48 209.11 40.78 175.7C21.89 125.96 31.22 86.3801 50.46 68.9501C69.7 51.5201 100.71 61.3601 100.71 61.3601C100.71 61.3601 85.29 140.63 111.61 210.2Z" fill="#F8A169"/>
<path d="M50.5702 69.1501C69.7102 51.7401 100.45 61.4301 100.45 61.4301C100.45 61.4301 91.1402 97.0501 95.3102 144.1C96.9902 165.3 101.65 188.18 111.31 209.98C111.31 209.98 57.8202 209.16 40.9802 175.43C22.0302 125.99 31.4402 86.5501 50.5702 69.1501Z" fill="#F8A16A"/>
<path d="M50.68 69.3501C69.68 51.9601 100.19 61.4901 100.19 61.4901C100.19 61.4901 88.77 95.7001 93.27 144.12C94.8599 165.39 100.02 188.12 111 209.76C111 209.76 58.15 209.2 41.16 175.15C22.16 126.02 31.65 86.7301 50.68 69.3501Z" fill="#F9A26B"/>
<path d="M50.7901 69.55C69.7101 52.19 99.94 61.55 99.94 61.55C99.94 61.55 86.41 94.34 91.23 144.14C92.6663 167.132 99.3213 189.494 110.69 209.53C110.69 209.53 58.48 209.23 41.35 174.86C22.29 126.05 31.8701 86.91 50.7901 69.55Z" fill="#F9A36B"/>
<path d="M50.8701 69.7499C69.6801 52.4099 99.6501 61.6199 99.6501 61.6199C99.6501 61.6199 84.0101 92.9999 89.1601 144.18C90.5363 167.348 97.8321 189.776 110.35 209.32C110.35 209.32 58.7801 209.32 41.5101 174.59C22.4201 126.08 32.0901 87.0799 50.8701 69.7499Z" fill="#F9A46C"/>
<path d="M51.0103 69.9498C69.7103 52.6398 99.4202 61.6898 99.4202 61.6898C99.4202 61.6898 81.6802 91.6898 87.1502 144.21C88.4789 167.576 96.4284 190.082 110.07 209.1C110.07 209.1 59.1402 209.32 41.7302 174.32C22.5602 126.11 32.3103 87.2598 51.0103 69.9498Z" fill="#F9A46C"/>
<path d="M51.12 70.1499C69.71 52.8599 99.12 61.7499 99.12 61.7499C99.12 61.7499 79.27 90.2899 85.07 144.24C86.26 165.74 93.45 188.11 109.72 208.88C109.72 208.88 59.43 209.36 41.88 174.04C22.69 126.14 32.53 87.4699 51.12 70.1499Z" fill="#F9A56D"/>
<path d="M51.2298 70.35C69.7098 53.09 98.8998 61.82 98.8998 61.82C98.8998 61.82 76.8998 88.94 83.0698 144.26C84.1698 165.83 91.8498 188.09 109.46 208.66C109.46 208.66 59.7998 209.41 42.1098 173.76C22.8698 126.18 32.7398 87.61 51.2298 70.35Z" fill="#F9A66E"/>
<path d="M51.3398 70.55C69.7098 53.31 98.6498 61.8801 98.6498 61.8801C98.6498 61.8801 74.5798 87.5901 81.0298 144.29C82.0298 165.92 90.2198 188.08 109.15 208.43C109.15 208.43 60.1498 209.43 42.2998 173.48C22.9498 126.21 32.9598 87.79 51.3398 70.55Z" fill="#F9A66E"/>
<path d="M51.4499 70.7501C69.7199 53.5401 98.3899 61.9501 98.3899 61.9501C98.3899 61.9501 72.2099 86.2401 78.9899 144.32C79.8899 166.01 88.5899 188.06 108.84 208.21C108.84 208.21 60.4699 209.49 42.4899 173.21C23.0899 126.24 33.1799 87.9601 51.4499 70.7501Z" fill="#F9A76F"/>
<path d="M51.56 70.9501C69.72 53.7601 98.13 62.0101 98.13 62.0101C98.13 62.0101 69.87 84.8901 76.95 144.35C77.75 166.1 86.95 188.05 108.53 207.99C108.53 207.99 60.8 209.53 42.68 172.93C23.22 126.27 33.4 88.1401 51.56 70.9501Z" fill="#F9A870"/>
<path d="M51.6698 71.1502C69.7198 53.9902 97.8698 62.0801 97.8698 62.0801C97.8698 62.0801 67.4798 83.5302 74.8698 144.37C75.5698 166.19 85.2798 188.03 108.19 207.77C108.19 207.77 61.0898 209.57 42.8298 172.65C23.3498 126.3 33.6198 88.3202 51.6698 71.1502Z" fill="#F9A970"/>
<path d="M51.7799 71.3498C69.7199 54.2098 97.6099 62.1398 97.6099 62.1398C97.6099 62.1398 65.1199 82.1398 72.8699 144.4C73.4799 166.28 83.6899 188.02 107.92 207.55C107.92 207.55 61.4599 209.62 43.0599 172.37C23.4799 126.33 33.8699 88.4698 51.7799 71.3498Z" fill="#F9A971"/>
<path d="M51.87 71.5499C69.7 54.4399 97.34 62.2099 97.34 62.2099C97.34 62.2099 62.75 80.8299 70.87 144.47C71.38 166.41 82.1 188.05 107.65 207.37C107.65 207.37 61.83 209.7 43.29 172.14C23.62 126.37 34.05 88.6699 51.87 71.5499Z" fill="#FAAA72"/>
<path d="M51.9902 71.7502C69.7202 54.6602 97.1002 62.2702 97.1002 62.2702C97.1002 62.2702 60.3902 79.4702 68.7902 144.47C69.2002 166.47 80.4302 188 107.3 207.12C107.3 207.12 62.1302 209.71 43.4402 171.83C23.7502 126.4 34.2702 88.8502 51.9902 71.7502Z" fill="#FAAB72"/>
<path d="M52.0998 71.95C69.7198 54.89 96.8398 62.34 96.8398 62.34C96.8398 62.34 58.0198 78.13 66.7498 144.47C67.0598 166.54 78.7498 187.97 106.99 206.88C106.99 206.88 62.4598 209.73 43.6298 171.53C23.8698 126.47 34.4898 89.02 52.0998 71.95Z" fill="#FAAB73"/>
<path d="M52.21 72.15C69.72 55.15 96.58 62.4 96.58 62.4C96.58 62.4 55.65 76.78 64.71 144.47C64.92 166.6 77.16 187.93 106.71 206.63C106.71 206.63 62.81 209.74 43.84 171.22C24.01 126.47 34.71 89.2 52.21 72.15Z" fill="#FAAC74"/>
<path d="M52.3198 72.3501C69.7198 55.3501 96.3198 62.4701 96.3198 62.4701C96.3198 62.4701 53.3198 75.4201 62.6598 144.54C62.7898 166.73 75.5298 187.95 106.38 206.45C106.38 206.45 63.1198 209.83 44.0098 170.99C24.1498 126.47 34.9198 89.3701 52.3198 72.3501Z" fill="#FAAD74"/>
<path d="M52.4299 72.56C69.7199 55.56 96.0699 62.56 96.0699 62.56C96.0699 62.56 50.9199 74.1 60.6199 144.56C60.6199 166.81 73.8999 187.93 106.07 206.22C106.07 206.22 63.4499 209.86 44.1999 170.7C24.2799 126.52 35.1399 89.55 52.4299 72.56Z" fill="#FAAE75"/>
<path d="M52.54 72.7602C69.72 55.7602 95.81 62.6002 95.81 62.6002C95.81 62.6002 48.56 72.7202 58.58 144.6C58.51 166.92 72.26 187.93 105.76 206.02C105.76 206.02 63.76 209.92 44.39 170.44C24.41 126.55 35.36 89.7302 52.54 72.7602Z" fill="#FAAE76"/>
<path d="M52.6501 72.96C69.7201 56.01 95.5501 62.66 95.5501 62.66C95.5501 62.66 46.1901 71.37 56.5501 144.66C56.3801 167.04 70.6401 187.95 105.46 205.82C105.46 205.82 64.1201 209.99 44.5901 170.19C24.5401 126.59 35.5801 89.9 52.6501 72.96Z" fill="#FAAF76"/>
<path d="M52.7602 73.1599C69.7602 56.2399 95.2902 62.7299 95.2902 62.7299C95.2902 62.7299 43.8302 70.0199 54.5002 144.65C54.2302 167.09 69.0002 187.89 105.15 205.56C105.15 205.56 64.4502 209.99 44.7702 169.88C24.6802 126.62 35.8002 90.0799 52.7602 73.1599Z" fill="#FAB077"/>
<path d="M52.8698 73.36C69.7198 56.46 95.0398 62.79 95.0398 62.79C95.0398 62.79 41.4598 68.66 52.4598 144.68C52.0998 167.18 67.3698 187.88 104.84 205.34C104.84 205.34 64.7798 210.04 44.9598 169.6C24.8098 126.65 36.0198 90.26 52.8698 73.36Z" fill="#FAB178"/>
<path d="M52.9801 73.5601C69.7301 56.6801 94.7801 62.8601 94.7801 62.8601C94.7801 62.8601 39.1001 67.3101 50.4201 144.71C49.9601 167.27 65.7301 187.87 104.53 205.12C104.53 205.12 65.1101 210.12 45.1501 169.32C24.9401 126.68 36.2301 90.4701 52.9801 73.5601Z" fill="#FAB178"/>
<path d="M53.0902 73.7602C69.7302 56.9102 94.5202 62.9202 94.5202 62.9202C94.5202 62.9202 36.7303 65.9202 48.3803 144.73C47.8203 167.36 64.1003 187.85 104.22 204.9C104.22 204.9 65.4402 210.12 45.3402 169.04C25.0802 126.71 36.4502 90.6102 53.0902 73.7602Z" fill="#FAB279"/>
<path d="M53.1998 73.9599C69.7299 57.1299 94.2599 62.9599 94.2599 62.9599C94.2599 62.9599 34.3699 64.5799 46.3399 144.73C45.6799 167.41 62.4698 187.81 103.92 204.65C103.92 204.65 65.7699 210.13 45.5299 168.74C25.2099 126.74 36.6698 90.7799 53.1998 73.9599Z" fill="#FBB37A"/>
<path d="M44.2999 144.79C43.5399 167.53 60.8399 187.79 103.61 204.46C103.61 204.46 66.1 210.2 45.72 168.46C25.34 126.72 36.89 90.9301 53.31 74.1301C69.73 57.3301 94 63.0301 94 63.0301C94 63.0301 31.9999 63.2601 44.2999 144.79Z" fill="#FBB47A"/>
<path d="M46.3798 140.13C46.3798 148.92 42.7198 156.04 38.1998 156.04C33.6798 156.04 30.0098 148.92 30.0098 140.13C30.0098 131.34 33.6798 124.21 38.1998 124.21C42.7198 124.21 46.3798 131.34 46.3798 140.13Z" fill="white"/>
<path d="M120.2 101.78H96.6602V161.49H120.2V101.78Z" fill="white"/>
<path d="M55.95 106.12L0 123.85V207.99L34.75 196.99V166.23L49.43 161.58C60.27 158.14 66.99 154.77 70.56 150.97C74.96 146.38 77.11 139.18 77.11 128.97C77.11 121.19 77.05 120.42 77.02 119.97C76.5133 114.737 74.8467 110.813 72.02 108.2C69.38 105.8 64.44 103.47 55.95 106.12ZM59.54 117.47C62.54 116.52 63.79 116.85 63.93 116.98C64.07 117.11 64.86 117.98 65.17 121.04C65.17 121.42 65.22 122.93 65.22 129.04C65.22 135.73 64.05 140.63 61.94 142.84C60.94 143.84 57.52 146.59 45.83 150.29L22.83 157.57V188.27L11.83 191.75V132.55L59.54 117.47Z" fill="white"/>
<path d="M33.1699 117.24L12.6299 123.74V139.1L22.8699 136.05V166.93L39.8699 161.55C42.913 160.676 45.6925 159.063 47.9608 156.854C50.2291 154.645 51.9155 151.909 52.8699 148.89C53.8699 145.89 54.2999 141.8 54.2999 136.27C54.2999 129.49 53.6099 125.18 52.0799 122.27L51.9999 122.13C49.9899 118.72 44.9299 113.47 33.1699 117.24ZM36.7599 128.57C39.8399 127.57 41.2899 127.81 41.5699 127.96C41.6799 128.22 42.3599 130.07 42.3599 136.27C42.3599 141.79 41.8399 144.27 41.5199 145.2C41.1552 146.418 40.4791 147.52 39.5584 148.397C38.6377 149.274 37.5042 149.895 36.2699 150.2L34.7499 150.68V131.38C34.7387 130.678 34.6448 129.98 34.4699 129.3L36.7599 128.57Z" fill="white"/>
<path d="M133.66 81.47H133.52L72.71 100.73V184.1L109.97 174.32L110.12 174.27C117.12 172.05 123.67 169.72 129.58 167.33C144.91 161.04 148.24 157.18 149.58 153.95C151.76 148.672 152.862 143.011 152.82 137.3C152.82 130.98 152.11 126.99 150.52 124.36C149.759 123.154 148.762 122.113 147.59 121.3C147.623 121.266 147.653 121.229 147.68 121.19C150.23 117.82 151.52 113.42 151.52 108.1C151.52 99.98 150.96 93.96 149.81 89.7C148.971 86.6132 146.943 83.9846 144.17 82.39C142.577 81.5188 140.82 80.9872 139.011 80.8289C137.202 80.6705 135.38 80.8888 133.66 81.47ZM138.23 92.76C138.267 92.7905 138.297 92.8279 138.32 92.87C138.91 95.08 139.61 99.52 139.61 108.15C139.61 110.84 139.12 112.84 138.17 114.09L138.08 114.21C137.71 114.73 136.45 116.11 132.77 117.84L120.77 123.24L124.66 134.47C134.53 131.9 137.97 131.35 139.15 131.25C139.586 131.212 140.024 131.212 140.46 131.25C140.817 133.286 140.968 135.353 140.91 137.42C140.941 141.49 140.173 145.526 138.65 149.3C138.17 149.82 135.65 152.09 125.1 156.44C119.53 158.68 113.3 160.9 106.63 163.02L84.63 168.8V109.52L137.01 92.93C137.399 92.7835 137.819 92.7387 138.23 92.8V92.76ZM149.79 89.76V89.65C149.804 89.6956 149.804 89.7444 149.79 89.79V89.76ZM147.66 121.25V121.31L147.75 121.19L147.66 121.25Z" fill="white"/>
<path d="M101.4 95.6198L85.2603 100.74V116.74L93.0002 114.28C94.0002 113.98 94.7202 113.77 95.3802 113.61V141.33L110.69 136.47C118.34 134.04 123.01 131.21 125.41 127.56C127.41 124.68 128.27 120.24 128.27 113.26C128.27 103.48 126.42 97.8498 122.27 95.0098C118.12 92.1698 111.64 92.3798 101.4 95.6198ZM115.4 104.94C115.74 105.78 116.4 108.04 116.4 113.26C116.4 119.35 115.55 120.93 115.51 120.99C115.47 121.05 114.21 122.86 107.29 125.07V109.57C107.282 108.502 107.068 107.446 106.66 106.46C112.1 104.86 114.52 104.85 115.41 104.94H115.4Z" fill="white"/>
<path d="M106.69 128.32L95.3799 131.91V175.85L103.99 171.63C104.639 171.386 105.308 171.198 105.99 171.07L106.21 171.01L108.97 170.14C109.17 170.08 109.32 170 109.51 169.93V169.98C117.36 167.5 122.67 164.37 125.73 160.43C128.73 156.67 130.19 151.29 130.19 144.05C130.19 136.39 128.65 131.56 125.34 128.85C120.15 124.72 112.22 126.57 106.69 128.32ZM109.13 140.02L110.3 139.65C114.68 138.27 116.78 138.2 117.64 138.26C118.123 140.15 118.325 142.101 118.24 144.05C118.24 149.81 117.04 152.18 116.33 153.05C115.62 153.92 113.25 156.05 107.27 158.12V140.61L109.13 140.02Z" fill="white"/>
<path d="M212.35 56.7699C210.41 56.9399 206.75 57.52 196.76 60.69L191.16 62.39L184.78 64.39C175.45 67.34 168.49 70.5099 163.48 74.0799C153.72 81.0799 151.67 89.4199 151.67 95.2099V123.21C151.67 136.21 154.62 144.73 160.67 149.21C165.51 152.76 171.79 153.35 179.31 150.96L212.51 140.45C215.275 139.492 217.965 138.332 220.56 136.98L223.1 135.72L228.1 113.34L216.1 120.83C210.38 124.482 204.234 127.421 197.8 129.58C191.46 131.58 189.27 130.94 188.88 130.78C188.56 130.04 187.58 127.15 186.06 117.32C184.936 111.043 184.268 104.693 184.06 98.32C184.06 93.05 184.52 88.98 185.43 86.22C186.87 81.78 189.43 79.1199 193.5 77.8299C194 77.6743 194.512 77.5574 195.03 77.48V101.01L227.87 90.59V69.67C227.87 64.62 225.8 61.67 224.07 60.04C221.28 57.47 217.35 56.3799 212.35 56.7699ZM167.73 139.55C166.48 138.63 163.56 135.2 163.56 123.17V95.17C163.56 92.35 164.27 88.09 170.39 83.72C171.756 82.7809 173.183 81.9324 174.66 81.18C174.5 81.62 174.31 82.04 174.16 82.5C172.84 86.5 172.16 91.66 172.16 98.29C172.346 105.27 173.055 112.226 174.28 119.1C176.28 131.82 177.65 135.33 178.87 137.23C179.151 137.596 179.452 137.946 179.77 138.28L175.71 139.57C172.05 140.74 169.35 140.74 167.73 139.55ZM213.33 68.62C214.182 68.5042 215.048 68.5551 215.88 68.7699C215.94 69.0661 215.966 69.3679 215.96 69.67V81.88L206.96 84.7399V73.7399C206.95 72.5451 206.677 71.3671 206.16 70.29C208.499 69.5324 210.897 68.9737 213.33 68.62Z" fill="white"/>
<path d="M69.68 128.99C69.68 137.497 68.0333 143.467 64.74 146.9C61.96 149.86 55.76 152.86 46.14 155.9L27.31 161.9V192.66L4.45996 199.9V128.2L56.25 111.79C60.9166 110.323 64.33 110.597 66.49 112.61C68.21 114.21 69.2466 116.843 69.6 120.51C69.6466 121.15 69.6733 123.977 69.68 128.99ZM46.87 136.27C46.87 130.723 46.3666 127.007 45.36 125.12C43.4266 121.747 39.48 121.007 33.52 122.9L17.14 128.09V131.09C18.88 130.603 20.6233 130.083 22.37 129.53C25.7033 128.863 27.37 129.47 27.37 131.35V158.78L36.64 155.85C38.7802 155.26 40.737 154.14 42.3293 152.593C43.9217 151.046 45.0982 149.122 45.75 147C46.4633 144.7 46.8366 141.123 46.87 136.27Z" fill="#F8A169"/>
<path d="M145.37 137.39C145.411 142.333 144.456 147.234 142.56 151.8C141.5 154.4 135.937 157.77 125.87 161.91C120.057 164.25 113.723 166.513 106.87 168.7L77.1699 176.47V105.17L85.8699 102.47L133.87 87.2601C139.63 85.6001 142.13 89.5 142.59 91.31C143.597 95.03 144.103 100.67 144.11 108.23C144.11 112.27 143.223 115.453 141.45 117.78C140.03 119.74 137.5 121.58 133.86 123.3C129.813 125.147 125.763 126.967 121.71 128.76C129.61 126.7 134.773 125.567 137.2 125.36C140.6 125.05 142.85 125.78 143.96 127.57C144.87 129.12 145.37 132.4 145.37 137.39ZM120.87 113.26C120.87 105.927 119.73 101.48 117.45 99.9201C115.017 98.2934 109.78 98.7501 101.74 101.29L89.7399 105.09V108.6C96.4933 106.473 99.8699 106.807 99.8699 109.6V133.23L104.3 131.82L107.45 130.82C113.57 128.887 117.41 126.723 118.97 124.33C120.237 122.423 120.87 118.733 120.87 113.26ZM122.73 144.05C122.73 138.443 121.84 134.91 120.06 133.45C117.927 131.737 113.593 131.917 107.06 133.99L103.94 134.99L99.9399 136.27V166.33C100.993 165.878 102.093 165.543 103.22 165.33L106.22 164.33C112.827 162.243 117.273 159.733 119.56 156.8C121.653 154.1 122.7 149.85 122.7 144.05H122.73Z" fill="#F8A169"/>
<path d="M220.42 86.24L199.51 92.8601V73.7301C199.51 72.2201 198.25 71.4201 195.72 71.3501C193.865 71.3049 192.016 71.572 190.25 72.1401C184.33 74.0134 180.357 78.0767 178.33 84.33C177.21 87.71 176.653 92.3767 176.66 98.33C176.841 104.997 177.509 111.641 178.66 118.21C180.033 127.037 181.273 132.317 182.38 134.05C184.607 137.45 189.84 137.843 198.08 135.23C204.987 132.925 211.583 129.778 217.72 125.86C217.407 127.28 216.977 129.203 216.43 131.63C214.103 132.842 211.694 133.888 209.22 134.76L176.02 145.28C162.727 149.493 156.08 142.137 156.08 123.21V95.21C156.08 88.7767 159.19 83.3467 165.41 78.9201C169.863 75.7467 176.41 72.79 185.05 70.05C186.557 69.57 188.653 68.9301 191.34 68.1301C194.02 67.3301 195.91 66.75 197.03 66.4C204.05 64.1734 208.8 62.9534 211.28 62.74C217.347 62.2667 220.38 64.6 220.38 69.74L220.42 86.24Z" fill="#F8A169"/>
<path d="M74.1399 130.47C74.1399 138.97 72.4966 144.94 69.2099 148.38C66.4232 151.34 60.2232 154.34 50.6099 157.38L31.7799 163.38V194.14L8.91992 201.38V129.69L60.7199 113.28C65.3866 111.807 68.7999 112.08 70.9599 114.1C72.6799 115.7 73.7099 118.33 74.0699 122C74.1166 122.614 74.1399 125.437 74.1399 130.47ZM51.2899 137.75C51.2899 132.204 50.7832 128.484 49.7699 126.59C47.8499 123.257 43.9066 122.52 37.9399 124.38L21.5599 129.57V132.57C23.2999 132.077 25.0399 131.557 26.7799 131.01C30.1133 130.344 31.7799 130.95 31.7799 132.83V160.26L41.0399 157.32C43.1808 156.733 45.1389 155.614 46.733 154.069C48.3272 152.524 49.5058 150.602 50.1599 148.48C50.9133 146.187 51.2899 142.614 51.2899 137.76V137.75Z" fill="url(#paint1_linear)"/>
<path d="M149.87 138.87C149.913 143.816 148.957 148.721 147.06 153.29C146 155.89 140.44 159.256 130.38 163.39C124.56 165.736 118.227 168 111.38 170.18L81.7202 177.97V106.66L90.3602 103.92L138.36 88.7098C144.13 87.0498 146.63 90.9498 147.08 92.7598C148.087 96.4664 148.594 102.106 148.6 109.68C148.6 113.72 147.714 116.9 145.94 119.22C144.53 121.22 141.99 123.03 138.35 124.75C134.304 126.603 130.254 128.423 126.2 130.21C134.1 128.136 139.267 127.003 141.7 126.81C145.087 126.49 147.34 127.226 148.46 129.02C149.4 130.606 149.87 133.89 149.87 138.87ZM125.34 114.75C125.34 107.416 124.204 102.97 121.93 101.41C119.504 99.7831 114.264 100.24 106.21 102.78L94.2102 106.58V110.09C100.964 107.95 104.34 108.283 104.34 111.09V134.71L108.77 133.31L111.92 132.31C118.034 130.376 121.874 128.213 123.44 125.82C124.68 123.94 125.3 120.25 125.3 114.75H125.34ZM127.2 145.54C127.2 139.926 126.31 136.393 124.53 134.94C122.404 133.22 118.07 133.4 111.53 135.48L108.4 136.48L104.4 137.76V167.81C105.45 167.358 106.547 167.023 107.67 166.81L110.72 165.81C117.32 163.723 121.764 161.213 124.05 158.28C126.124 155.586 127.16 151.34 127.16 145.54H127.2Z" fill="url(#paint2_linear)"/>
<path d="M224.87 87.7299L203.97 94.3499V75.2199C203.97 73.7132 202.703 72.9166 200.17 72.8299C198.316 72.7961 196.469 73.0629 194.7 73.6199C188.813 75.5199 184.843 79.5866 182.79 85.8199C181.677 89.1999 181.12 93.8666 181.12 99.8199C181.313 106.485 181.998 113.126 183.17 119.69C184.503 128.53 185.74 133.813 186.88 135.54C189.113 138.94 194.347 139.333 202.58 136.72C209.485 134.412 216.081 131.266 222.22 127.35C221.92 128.77 221.49 130.693 220.93 133.12C218.607 134.333 216.201 135.379 213.73 136.25L180.53 146.76C167.23 150.967 160.583 143.613 160.59 124.7V96.6999C160.59 90.2666 163.697 84.8366 169.91 80.4099C174.363 77.2432 180.91 74.2866 189.55 71.5399C191.07 71.0599 193.16 70.4199 195.84 69.6199C198.52 68.8199 200.42 68.2399 201.53 67.8899C208.557 65.6566 213.307 64.4332 215.78 64.2199C221.847 63.7599 224.88 66.0932 224.88 71.2199L224.87 87.7299Z" fill="url(#paint3_linear)"/>
</g>
<defs>
<linearGradient id="paint0_linear" x1="106.3" y1="17.5002" x2="114.26" y2="54.1202" gradientUnits="userSpaceOnUse">
<stop offset="0.05" stop-color="#008251"/>
<stop offset="0.53" stop-color="#00B27B"/>
<stop offset="0.94" stop-color="#008251"/>
</linearGradient>
<linearGradient id="paint1_linear" x1="16290.4" y1="37373.2" x2="17668.5" y2="42016.9" gradientUnits="userSpaceOnUse">
<stop offset="0.05" stop-color="#008251"/>
<stop offset="0.53" stop-color="#00B27B"/>
<stop offset="0.94" stop-color="#008251"/>
</linearGradient>
<linearGradient id="paint2_linear" x1="22202.3" y1="36149.5" x2="23547.5" y2="40855" gradientUnits="userSpaceOnUse">
<stop offset="0.05" stop-color="#008251"/>
<stop offset="0.53" stop-color="#00B27B"/>
<stop offset="0.94" stop-color="#008251"/>
</linearGradient>
<linearGradient id="paint3_linear" x1="26306.1" y1="32253.2" x2="27551.9" y2="36653" gradientUnits="userSpaceOnUse">
<stop offset="0.05" stop-color="#008251"/>
<stop offset="0.53" stop-color="#00B27B"/>
<stop offset="0.94" stop-color="#008251"/>
</linearGradient>
<clipPath id="clip0">
<rect width="228.14" height="217.17" fill="white"/>
</clipPath>
</defs>
</svg>
